<svg width="16" height="12" viewBox="0 0 16 12" fill="none" xmlns="http://www.w3.org/2000/svg">
    <path fill-rule="evenodd" clip-rule="evenodd" d="M15.875 6.00022C15.875 5.85104 15.8157 5.70796 15.7102 5.60248C15.6048 5.49699 15.4617 5.43772 15.3125 5.43772H2.04537L5.58575 1.89847C5.69137 1.79285 5.75071 1.64959 5.75071 1.50022C5.75071 1.35085 5.69137 1.20759 5.58575 1.10197C5.48013 0.99635 5.33687 0.937012 5.1875 0.937012C5.03813 0.937012 4.89487 0.99635 4.78925 1.10197L0.289248 5.60197C0.236865 5.65422 0.195304 5.7163 0.166947 5.78463C0.13859 5.85297 0.123993 5.92623 0.123993 6.00022C0.123993 6.07421 0.13859 6.14747 0.166947 6.21581C0.195304 6.28415 0.236865 6.34622 0.289248 6.39847L4.78925 10.8985C4.89487 11.0041 5.03813 11.0634 5.1875 11.0634C5.33687 11.0634 5.48013 11.0041 5.58575 10.8985C5.69137 10.7928 5.75071 10.6496 5.75071 10.5002C5.75071 10.3508 5.69137 10.2076 5.58575 10.102L2.04537 6.56272H15.3125C15.4617 6.56272 15.6048 6.50346 15.7102 6.39797C15.8157 6.29248 15.875 6.14941 15.875 6.00022Z" fill="#777777"/>
</svg>