<svg width="19" height="21" viewBox="0 0 19 21" fill="none" xmlns="http://www.w3.org/2000/svg">
    <path d="M4.50002 7.25H5.00002V6.75V5.5C5.00002 4.30653 5.47413 3.16193 6.31804 2.31802C7.16196 1.47411 8.30655 1 9.50003 1C10.6935 1 11.8381 1.47411 12.682 2.31802C13.5259 3.16193 14 4.30653 14 5.5V6.75V7.25H14.5H15.75H15.7501C15.9347 7.24999 16.1128 7.31808 16.2504 7.44125C16.388 7.56441 16.4753 7.73399 16.4956 7.9175L16.4956 7.91772L17.7456 19.1675C17.7456 19.1676 17.7456 19.1676 17.7456 19.1677C17.7571 19.2725 17.7465 19.3785 17.7143 19.4788C17.6822 19.5793 17.6292 19.6718 17.5588 19.7503L17.9313 20.0839L17.5588 19.7503C17.4885 19.8289 17.4024 19.8917 17.3061 19.9348C17.2098 19.9778 17.1055 20 17.0001 20H17H2.00002H1.99999C1.89454 20 1.79026 19.9778 1.69398 19.9348C1.5977 19.8917 1.51157 19.8289 1.44122 19.7503C1.37087 19.6718 1.31788 19.5793 1.2857 19.4788C1.25352 19.3784 1.24289 19.2723 1.25449 19.1675L2.50447 7.91772L2.50449 7.9175C2.5248 7.73398 2.61209 7.56441 2.74965 7.44125C2.8872 7.31808 3.06535 7.24999 3.24999 7.25H3.25002H4.50002ZM12 7.25H12.5V6.75V5.5C12.5 4.70435 12.184 3.94129 11.6213 3.37868C11.0587 2.81607 10.2957 2.5 9.50003 2.5C8.70438 2.5 7.94131 2.81607 7.37871 3.37868C6.8161 3.94129 6.50003 4.70435 6.50003 5.5V6.75V7.25H7.00003H12ZM4.51259 11.7374L4.81563 11.4344L4.51259 11.7374C4.84078 12.0656 5.2859 12.25 5.75003 12.25C6.21415 12.25 6.65927 12.0656 6.98746 11.7374C7.31565 11.4092 7.50003 10.9641 7.50003 10.5C7.50003 10.0359 7.31565 9.59075 6.98746 9.26256C6.65927 8.93438 6.21415 8.75 5.75003 8.75C5.2859 8.75 4.84078 8.93438 4.51259 9.26256L4.81563 9.56561L4.51259 9.26256C4.1844 9.59075 4.00002 10.0359 4.00002 10.5C4.00002 10.9641 4.1844 11.4092 4.51259 11.7374ZM13.25 8.75C12.7859 8.75 12.3408 8.93438 12.0126 9.26256C11.6844 9.59075 11.5 10.0359 11.5 10.5C11.5 10.9641 11.6844 11.4092 12.0126 11.7374C12.3408 12.0656 12.7859 12.25 13.25 12.25C13.7142 12.25 14.1593 12.0656 14.4875 11.7374C14.8157 11.4092 15 10.9641 15 10.5C15 10.0359 14.8157 9.59075 14.4875 9.26256C14.1593 8.93438 13.7142 8.75 13.25 8.75Z" fill="#777777" stroke="#777777"/>
</svg>