<svg width="12" height="12" viewBox="0 0 12 12" fill="none" xmlns="http://www.w3.org/2000/svg">
    <path d="M11.4 6.0001C11.4 6.4978 11.3568 6.9001 10.8591 6.9001H6.89998V10.8592C6.89998 11.356 6.49768 11.4001 5.99998 11.4001C5.50228 11.4001 5.09998 11.356 5.09998 10.8592V6.9001H1.14088C0.644075 6.9001 0.599976 6.4978 0.599976 6.0001C0.599976 5.5024 0.644075 5.1001 1.14088 5.1001H5.09998V1.141C5.09998 0.643298 5.50228 0.600098 5.99998 0.600098C6.49768 0.600098 6.89998 0.643298 6.89998 1.141V5.1001H10.8591C11.3568 5.1001 11.4 5.5024 11.4 6.0001Z" fill="white"/>
</svg>