<svg width="9" height="9" viewBox="0 0 9 9" fill="none" xmlns="http://www.w3.org/2000/svg">
    <path
        d="M4.50007 7.52422C4.45585 7.52447 4.41201 7.516 4.37107 7.49928C4.33013 7.48255 4.29289 7.45791 4.26149 7.42677L1.65061 4.81253C1.32311 4.4816 1.1394 4.03483 1.1394 3.56925C1.1394 3.10366 1.32311 2.65689 1.65061 2.32597C1.98067 1.99684 2.42777 1.81201 2.89389 1.81201C3.36 1.81201 3.8071 1.99684 4.13717 2.32597L4.50007 2.68887L4.86297 2.32597C5.19303 1.99684 5.64013 1.81201 6.10625 1.81201C6.57237 1.81201 7.01947 1.99684 7.34953 2.32597C7.67703 2.65689 7.86073 3.10366 7.86073 3.56925C7.86073 4.03483 7.67703 4.4816 7.34953 4.81253L4.73864 7.42677C4.70725 7.45791 4.67001 7.48255 4.62907 7.49928C4.58813 7.516 4.54429 7.52447 4.50007 7.52422Z"
        fill="#EC534A" />
</svg>